<svg viewBox="0 0 1408 384" xmlns="http://www.w3.org/2000/svg" role="img" aria-labelledby="title desc">
  <title id="title">Stefan Peoples cybersecurity audit banner</title>
  <desc id="desc">Cybersecurity banner for Stefan Peoples, CISA with IT audit, IT risk, GRC, IT general controls, Security+, and active Secret clearance credentials.</desc>
  <defs>
    <linearGradient id="bg" x1="0" y1="0" x2="1" y2="0">
      <stop offset="0" stop-color="#030812"/>
      <stop offset="0.48" stop-color="#071A2A"/>
      <stop offset="1" stop-color="#020713"/>
    </linearGradient>
    <linearGradient id="blueGlow" x1="0" y1="0" x2="1" y2="1">
      <stop offset="0" stop-color="#8BD7FF"/>
      <stop offset="1" stop-color="#1874CF"/>
    </linearGradient>
    <linearGradient id="steel" x1="0" y1="0" x2="0" y2="1">
      <stop offset="0" stop-color="#FFFFFF"/>
      <stop offset="0.46" stop-color="#D9DFE8"/>
      <stop offset="1" stop-color="#7E8998"/>
    </linearGradient>
    <filter id="softGlow" x="-50%" y="-50%" width="200%" height="200%">
      <feGaussianBlur stdDeviation="4" result="blur"/>
      <feMerge>
        <feMergeNode in="blur"/>
        <feMergeNode in="SourceGraphic"/>
      </feMerge>
    </filter>
    <filter id="textShadow" x="-10%" y="-20%" width="120%" height="160%">
      <feDropShadow dx="0" dy="4" stdDeviation="2" flood-color="#000000" flood-opacity="0.75"/>
    </filter>
    <pattern id="serverDots" width="24" height="24" patternUnits="userSpaceOnUse">
      <rect width="24" height="24" fill="transparent"/>
      <circle cx="19" cy="7" r="1.8" fill="#4FA9F7" opacity="0.55"/>
      <circle cx="19" cy="17" r="1.8" fill="#4FA9F7" opacity="0.35"/>
    </pattern>
  </defs>

  <rect width="1408" height="384" fill="url(#bg)"/>
  <rect x="0" y="0" width="1408" height="384" fill="#000000" opacity="0.18"/>

  <g opacity="0.24">
    <path d="M0 0h610l83 102h-693z" fill="#07111D"/>
    <path d="M0 264l46 55h547l40 48h-633z" fill="#122237"/>
    <path d="M24 0c54 20 111 36 171 46-56 10-113 13-171 8z" fill="#172638"/>
  </g>

  <g opacity="0.5" stroke="#1D8FE9" stroke-width="1">
    <path d="M520 220c86-40 157-63 240-52 90 13 172 61 266 26"/>
    <path d="M580 290c126-68 242-56 350 18"/>
    <path d="M620 118c96 8 178 34 249 78"/>
    <path d="M700 46c88 72 160 138 216 244"/>
    <path d="M540 318c70-82 147-152 272-220"/>
  </g>
  <g fill="#42B9FF" filter="url(#softGlow)">
    <circle cx="563" cy="210" r="3"/>
    <circle cx="628" cy="182" r="2.5"/>
    <circle cx="710" cy="160" r="3"/>
    <circle cx="786" cy="176" r="2.5"/>
    <circle cx="860" cy="214" r="3"/>
    <circle cx="634" cy="296" r="2.5"/>
    <circle cx="735" cy="270" r="3"/>
    <circle cx="828" cy="298" r="2.5"/>
    <circle cx="724" cy="66" r="2"/>
    <circle cx="856" cy="142" r="2.5"/>
  </g>

  <g transform="translate(60 87)" filter="url(#textShadow)">
    <text x="0" y="75" font-family="Impact, Haettenschweiler, 'Arial Narrow Bold', Arial, sans-serif" font-size="70" letter-spacing="3" fill="url(#steel)">STEFAN PEOPLES, CISA</text>
    <text x="2" y="142" font-family="Arial, Helvetica, sans-serif" font-size="27" fill="#F4F7FB">
      IT Audit <tspan fill="#F2A43A">|</tspan> IT Risk <tspan fill="#F2A43A">|</tspan> GRC <tspan fill="#F2A43A">|</tspan> IT General Controls
    </text>
    <text x="2" y="193" font-family="Arial, Helvetica, sans-serif" font-size="27" fill="#F4F7FB">
      CISA <tspan fill="#F2A43A">|</tspan> Security+ <tspan fill="#F2A43A">|</tspan> Active Secret Clearance
    </text>
  </g>

  <g stroke="#7CCBFF" stroke-width="1.5" fill="none" opacity="0.9">
    <path d="M0 265l58 58h532l38 44h-584l-44-44z" fill="#0B1421" opacity="0.75"/>
    <path d="M47 319h544l39 45" filter="url(#softGlow)"/>
  </g>

  <g transform="translate(790 16)" filter="url(#softGlow)">
    <circle cx="46" cy="46" r="44" fill="#08182A" stroke="#245C91" stroke-width="2" opacity="0.9"/>
    <path d="M46 8l36 17v33c0 29-25 47-36 58-11-11-36-29-36-58v-33z" fill="#0B3155" stroke="#57BFFF" stroke-width="2.5"/>
    <rect x="28" y="42" width="36" height="30" rx="4" fill="url(#blueGlow)"/>
    <path d="M36 42v-12c0-8 5-14 10-14s10 6 10 14v12" stroke="#CDEEFF" stroke-width="5"/>
  </g>

  <g transform="translate(930 0)" font-family="Arial, Helvetica, sans-serif">
    <g>
      <rect x="0" y="0" width="155" height="103" rx="4" fill="#061321" opacity="0.72" stroke="#29628F"/>
      <text x="19" y="17" fill="#C9E9FF" font-size="12" font-weight="700">AUDIT READINESS</text>
      <g fill="none" stroke="#84D7FF" stroke-width="1.4">
        <rect x="22" y="30" width="12" height="12"/><path d="M24 36l4 4 9-11"/>
        <rect x="22" y="55" width="12" height="12"/><path d="M24 61l4 4 9-11"/>
        <rect x="22" y="80" width="12" height="12"/><path d="M24 86l4 4 9-11"/>
      </g>
      <text x="43" y="40" fill="#EAF6FF" font-size="12">Access Reviews</text>
      <text x="43" y="65" fill="#EAF6FF" font-size="12">Control Validation</text>
      <text x="43" y="90" fill="#EAF6FF" font-size="12">Audit Evidence</text>
    </g>
    <g transform="translate(184 0)">
      <rect x="0" y="0" width="128" height="103" rx="4" fill="#061321" opacity="0.72" stroke="#29628F"/>
      <text x="20" y="17" fill="#C9E9FF" font-size="12" font-weight="700">STIG COMPLIANCE</text>
      <circle cx="64" cy="60" r="32" fill="#0B243E" stroke="#2F92DD" stroke-width="3"/>
      <circle cx="64" cy="60" r="24" fill="none" stroke="#7ED6FF" stroke-width="1.5" stroke-dasharray="6 5"/>
      <path d="M50 60l10 10 20-24" fill="none" stroke="#C9F2FF" stroke-width="6" stroke-linecap="round" stroke-linejoin="round"/>
    </g>
    <g transform="translate(0 118)">
      <rect x="0" y="0" width="155" height="118" rx="4" fill="#061321" opacity="0.72" stroke="#29628F"/>
      <text x="20" y="17" fill="#C9E9FF" font-size="11" font-weight="700">NIST CONTROL VALIDATION</text>
      <path d="M41 47l24-12 24 12v30c0 19-17 31-24 38-7-7-24-19-24-38z" fill="#0B3155" stroke="#58C1FF" stroke-width="2"/>
      <path d="M54 70l8 8 17-22" fill="none" stroke="#CFF1FF" stroke-width="4" stroke-linecap="round"/>
      <g fill="none" stroke="#84D7FF" stroke-width="1.2">
        <rect x="76" y="36" width="8" height="8"/><path d="M78 40l3 3 6-8"/>
        <rect x="76" y="51" width="8" height="8"/><path d="M78 55l3 3 6-8"/>
        <rect x="76" y="66" width="8" height="8"/><path d="M78 70l3 3 6-8"/>
        <rect x="76" y="81" width="8" height="8"/><path d="M78 85l3 3 6-8"/>
        <rect x="76" y="96" width="8" height="8"/><path d="M78 100l3 3 6-8"/>
      </g>
      <text x="91" y="44" fill="#EAF6FF" font-size="10">Identify</text>
      <text x="91" y="59" fill="#EAF6FF" font-size="10">Protect</text>
      <text x="91" y="74" fill="#EAF6FF" font-size="10">Detect</text>
      <text x="91" y="89" fill="#EAF6FF" font-size="10">Respond</text>
      <text x="91" y="104" fill="#EAF6FF" font-size="10">Recover</text>
    </g>
    <g transform="translate(184 118)">
      <rect x="0" y="0" width="128" height="118" rx="4" fill="#061321" opacity="0.72" stroke="#29628F"/>
      <text x="19" y="17" fill="#C9E9FF" font-size="11" font-weight="700">LEAST-PRIVILEGE</text>
      <text x="19" y="31" fill="#C9E9FF" font-size="11" font-weight="700">ACCESS REVIEWS</text>
      <g fill="url(#blueGlow)">
        <circle cx="38" cy="70" r="9"/><path d="M22 100c2-18 30-18 32 0z"/>
        <circle cx="64" cy="65" r="11"/><path d="M45 101c2-22 36-22 38 0z"/>
        <circle cx="91" cy="70" r="9"/><path d="M75 100c2-18 30-18 32 0z"/>
      </g>
      <circle cx="98" cy="89" r="15" fill="#0B243E" stroke="#7ED6FF" stroke-width="2"/>
      <path d="M90 88l6 6 12-16" fill="none" stroke="#D9F6FF" stroke-width="3" stroke-linecap="round"/>
    </g>
    <g transform="translate(0 251)">
      <rect x="0" y="0" width="248" height="118" rx="4" fill="#061321" opacity="0.72" stroke="#29628F"/>
      <text x="20" y="18" fill="#C9E9FF" font-size="12" font-weight="700">RISK MATRIX</text>
      <g transform="translate(21 35)">
        <g fill="#173E62">
          <rect x="0" y="0" width="13" height="13"/><rect x="18" y="0" width="13" height="13"/><rect x="36" y="0" width="13" height="13"/><rect x="54" y="0" width="13" height="13"/><rect x="72" y="0" width="13" height="13"/><rect x="90" y="0" width="13" height="13"/><rect x="108" y="0" width="13" height="13"/><rect x="126" y="0" width="13" height="13"/>
          <rect x="0" y="18" width="13" height="13"/><rect x="18" y="18" width="13" height="13"/><rect x="36" y="18" width="13" height="13"/><rect x="54" y="18" width="13" height="13"/><rect x="72" y="18" width="13" height="13"/><rect x="90" y="18" width="13" height="13"/><rect x="108" y="18" width="13" height="13"/><rect x="126" y="18" width="13" height="13"/>
          <rect x="0" y="36" width="13" height="13"/><rect x="18" y="36" width="13" height="13"/><rect x="36" y="36" width="13" height="13"/><rect x="54" y="36" width="13" height="13"/><rect x="72" y="36" width="13" height="13"/><rect x="90" y="36" width="13" height="13"/><rect x="108" y="36" width="13" height="13"/><rect x="126" y="36" width="13" height="13"/>
          <rect x="0" y="54" width="13" height="13"/><rect x="18" y="54" width="13" height="13"/><rect x="36" y="54" width="13" height="13"/><rect x="54" y="54" width="13" height="13"/><rect x="72" y="54" width="13" height="13"/><rect x="90" y="54" width="13" height="13"/><rect x="108" y="54" width="13" height="13"/><rect x="126" y="54" width="13" height="13"/>
        </g>
        <g fill="#D9992E">
          <rect x="54" y="18" width="13" height="13"/><rect x="72" y="18" width="13" height="13"/><rect x="90" y="36" width="13" height="13"/><rect x="108" y="54" width="13" height="13"/><rect x="126" y="54" width="13" height="13"/>
        </g>
      </g>
      <path d="M209 36l24 12v28c0 18-17 31-24 38-7-7-24-20-24-38v-28z" fill="#0B3155" stroke="#58C1FF" stroke-width="2.5"/>
      <text x="204" y="86" fill="#FFFFFF" font-size="42" font-family="Arial, Helvetica, sans-serif" font-weight="700">!</text>
    </g>
  </g>

  <g transform="translate(1240 196)" filter="url(#softGlow)">
    <circle cx="52" cy="52" r="72" fill="none" stroke="#276CA4" stroke-width="1.5" opacity="0.6"/>
    <circle cx="52" cy="52" r="54" fill="none" stroke="#276CA4" stroke-width="1" stroke-dasharray="8 7" opacity="0.75"/>
    <circle cx="52" cy="52" r="38" fill="#08182A" stroke="#245C91" stroke-width="2"/>
    <rect x="32" y="53" width="40" height="34" rx="4" fill="url(#blueGlow)"/>
    <path d="M41 53v-14c0-9 5-16 11-16s11 7 11 16v14" stroke="#CDEEFF" stroke-width="6" fill="none"/>
  </g>

  <g transform="translate(1332 0)" opacity="0.8">
    <rect width="76" height="384" fill="#050A12"/>
    <rect width="76" height="384" fill="url(#serverDots)"/>
    <g stroke="#17456F" stroke-width="1">
      <path d="M8 29h60M8 60h60M8 91h60M8 122h60M8 153h60M8 184h60M8 215h60M8 246h60M8 277h60M8 308h60M8 339h60"/>
    </g>
  </g>
</svg>
